<svg width="15" height="15" viewBox="0 0 15 15" fill="none" xmlns="http://www.w3.org/2000/svg">
<g clip-path="url(#clip0_1_2097)">
<path fill-rule="evenodd" clip-rule="evenodd" d="M14.85 4.47934C14.85 4.47934 14.7033 3.43836 14.2538 2.98004C13.6833 2.37816 13.0439 2.37535 12.7509 2.34043C10.6519 2.1875 7.50328 2.1875 7.50328 2.1875H7.49672C7.49672 2.1875 4.34812 2.1875 2.24906 2.34043C1.95562 2.37535 1.31672 2.37816 0.745781 2.98004C0.29625 3.43848 0.15 4.47934 0.15 4.47934C0.15 4.47934 0 5.70207 0 6.92422V8.07043C0 9.29305 0.15 10.5153 0.15 10.5153C0.15 10.5153 0.29625 11.5563 0.745781 12.0146C1.31672 12.6165 2.06625 12.5976 2.4 12.6604C3.6 12.7766 7.5 12.8124 7.5 12.8124C7.5 12.8124 10.6519 12.8077 12.7509 12.6548C13.0439 12.6194 13.6833 12.6166 14.2538 12.0147C14.7033 11.5563 14.85 10.5154 14.85 10.5154C14.85 10.5154 15 9.29316 15 8.07043V6.92422C15 5.70207 14.85 4.47934 14.85 4.47934ZM5.95125 9.45934L5.95078 5.21492L10.0036 7.34445L5.95125 9.45934Z" fill="#CC1616"/>
</g>
<defs>
<clipPath id="clip0_1_2097">
<rect width="15" height="15" fill="#CC1616"/>
</clipPath>
</defs>
</svg>
